ISO-10303-21;
HEADER;
/* Generated by software containing ST-Developer
 * from STEP Tools, Inc. (www.steptools.com) 
 */
/* OPTION: using custom renumber hook */

FILE_DESCRIPTION(
/* description */ ('STEP AP203'),
/* implementation_level */ '2;1');

FILE_NAME(
/* name */ 'BN 20395 3443487 compression cable lug BM 03143',
/* time_stamp */ '2026-08-11T21:05:19+02:00',
/* author */ ('License CC BY-ND 4.0'),
/* organization */ ('CADENAS'),
/* preprocessor_version */ 'ST-DEVELOPER v20',
/* originating_system */ 'PARTsolutions',
/* authorisation */ '  ');

FILE_SCHEMA (('CONFIG_CONTROL_DESIGN'));
ENDSEC;

DATA;
#10=PROPERTY_DEFINITION_REPRESENTATION(#14,#12);
#11=PROPERTY_DEFINITION_REPRESENTATION(#15,#13);
#12=REPRESENTATION('',(#16),#611);
#13=REPRESENTATION('',(#17),#611);
#14=PROPERTY_DEFINITION('pmi validation property','',#616);
#15=PROPERTY_DEFINITION('pmi validation property','',#616);
#16=VALUE_REPRESENTATION_ITEM('number of annotations',COUNT_MEASURE(0.));
#17=VALUE_REPRESENTATION_ITEM('number of views',COUNT_MEASURE(0.));
#18=SHAPE_REPRESENTATION_RELATIONSHIP('','',#367,#19);
#19=ADVANCED_BREP_SHAPE_REPRESENTATION('',(#365),#611);
#20=VERTEX_LOOP('',#207);
#21=CONICAL_SURFACE('',#395,0.,1.0471975511966);
#22=CONICAL_SURFACE('',#399,6.9,0.785398163397448);
#23=B_SPLINE_CURVE_WITH_KNOTS('',3,(#561,#562,#563,#564),.UNSPECIFIED.,
 .F.,.F.,(4,4),(2.5804011705155E-17,0.00378410802283839),.UNSPECIFIED.);
#24=CYLINDRICAL_SURFACE('',#380,12.5);
#25=CYLINDRICAL_SURFACE('',#386,3.45);
#26=CYLINDRICAL_SURFACE('',#389,1.725);
#27=CYLINDRICAL_SURFACE('',#393,5.25);
#28=CYLINDRICAL_SURFACE('',#394,14.4008620689655);
#29=CYLINDRICAL_SURFACE('',#397,6.9);
#30=CIRCLE('',#372,3.45);
#31=CIRCLE('',#373,1.725);
#32=CIRCLE('',#375,5.25);
#33=CIRCLE('',#376,14.4008620689655);
#34=CIRCLE('',#378,5.25);
#35=CIRCLE('',#379,14.4008620689655);
#36=CIRCLE('',#383,12.5);
#37=CIRCLE('',#385,7.245);
#38=CIRCLE('',#387,3.45);
#39=CIRCLE('',#390,1.725);
#40=CIRCLE('',#396,6.9);
#41=CIRCLE('',#398,6.9);
#42=ELLIPSE('',#370,14.0635678520338,12.5);
#43=ELLIPSE('',#381,14.0635678520338,12.5);
#44=ELLIPSE('',#382,14.0635678520338,12.5);
#45=ORIENTED_EDGE('',*,*,#135,.F.);
#46=ORIENTED_EDGE('',*,*,#136,.T.);
#47=ORIENTED_EDGE('',*,*,#137,.T.);
#48=ORIENTED_EDGE('',*,*,#138,.F.);
#49=ORIENTED_EDGE('',*,*,#139,.F.);
#50=ORIENTED_EDGE('',*,*,#140,.F.);
#51=ORIENTED_EDGE('',*,*,#141,.T.);
#52=ORIENTED_EDGE('',*,*,#142,.F.);
#53=ORIENTED_EDGE('',*,*,#137,.F.);
#54=ORIENTED_EDGE('',*,*,#143,.F.);
#55=ORIENTED_EDGE('',*,*,#144,.F.);
#56=ORIENTED_EDGE('',*,*,#145,.F.);
#57=ORIENTED_EDGE('',*,*,#146,.F.);
#58=ORIENTED_EDGE('',*,*,#147,.F.);
#59=ORIENTED_EDGE('',*,*,#148,.F.);
#60=ORIENTED_EDGE('',*,*,#149,.T.);
#61=ORIENTED_EDGE('',*,*,#150,.F.);
#62=ORIENTED_EDGE('',*,*,#148,.T.);
#63=ORIENTED_EDGE('',*,*,#151,.T.);
#64=ORIENTED_EDGE('',*,*,#152,.F.);
#65=ORIENTED_EDGE('',*,*,#153,.T.);
#66=ORIENTED_EDGE('',*,*,#154,.T.);
#67=ORIENTED_EDGE('',*,*,#155,.F.);
#68=ORIENTED_EDGE('',*,*,#156,.T.);
#69=ORIENTED_EDGE('',*,*,#146,.T.);
#70=ORIENTED_EDGE('',*,*,#157,.F.);
#71=ORIENTED_EDGE('',*,*,#158,.F.);
#72=ORIENTED_EDGE('',*,*,#159,.F.);
#73=ORIENTED_EDGE('',*,*,#160,.F.);
#74=ORIENTED_EDGE('',*,*,#161,.F.);
#75=ORIENTED_EDGE('',*,*,#143,.T.);
#76=ORIENTED_EDGE('',*,*,#136,.F.);
#77=ORIENTED_EDGE('',*,*,#162,.T.);
#78=ORIENTED_EDGE('',*,*,#163,.F.);
#79=ORIENTED_EDGE('',*,*,#162,.F.);
#80=ORIENTED_EDGE('',*,*,#164,.F.);
#81=ORIENTED_EDGE('',*,*,#160,.T.);
#82=ORIENTED_EDGE('',*,*,#165,.F.);
#83=ORIENTED_EDGE('',*,*,#166,.F.);
#84=ORIENTED_EDGE('',*,*,#157,.T.);
#85=ORIENTED_EDGE('',*,*,#145,.T.);
#86=ORIENTED_EDGE('',*,*,#165,.T.);
#87=ORIENTED_EDGE('',*,*,#159,.T.);
#88=ORIENTED_EDGE('',*,*,#167,.F.);
#89=ORIENTED_EDGE('',*,*,#138,.T.);
#90=ORIENTED_EDGE('',*,*,#149,.F.);
#91=ORIENTED_EDGE('',*,*,#153,.F.);
#92=ORIENTED_EDGE('',*,*,#168,.T.);
#93=ORIENTED_EDGE('',*,*,#158,.T.);
#94=ORIENTED_EDGE('',*,*,#135,.T.);
#95=ORIENTED_EDGE('',*,*,#168,.F.);
#96=ORIENTED_EDGE('',*,*,#152,.T.);
#97=ORIENTED_EDGE('',*,*,#169,.T.);
#98=ORIENTED_EDGE('',*,*,#155,.T.);
#99=ORIENTED_EDGE('',*,*,#166,.T.);
#100=ORIENTED_EDGE('',*,*,#167,.T.);
#101=ORIENTED_EDGE('',*,*,#144,.T.);
#102=ORIENTED_EDGE('',*,*,#161,.T.);
#103=ORIENTED_EDGE('',*,*,#164,.T.);
#104=ORIENTED_EDGE('',*,*,#150,.T.);
#105=ORIENTED_EDGE('',*,*,#154,.F.);
#106=ORIENTED_EDGE('',*,*,#169,.F.);
#107=ORIENTED_EDGE('',*,*,#151,.F.);
#108=ORIENTED_EDGE('',*,*,#147,.T.);
#109=ORIENTED_EDGE('',*,*,#156,.F.);
#110=ORIENTED_EDGE('',*,*,#170,.T.);
#111=ORIENTED_EDGE('',*,*,#171,.T.);
#112=ORIENTED_EDGE('',*,*,#170,.F.);
#113=ORIENTED_EDGE('',*,*,#163,.T.);
#114=ORIENTED_EDGE('',*,*,#171,.F.);
#115=ORIENTED_EDGE('',*,*,#140,.T.);
#116=ORIENTED_EDGE('',*,*,#172,.T.);
#117=ORIENTED_EDGE('',*,*,#173,.T.);
#118=ORIENTED_EDGE('',*,*,#174,.F.);
#119=ORIENTED_EDGE('',*,*,#142,.T.);
#120=ORIENTED_EDGE('',*,*,#175,.F.);
#121=ORIENTED_EDGE('',*,*,#176,.F.);
#122=ORIENTED_EDGE('',*,*,#177,.T.);
#123=ORIENTED_EDGE('',*,*,#139,.T.);
#124=ORIENTED_EDGE('',*,*,#177,.F.);
#125=ORIENTED_EDGE('',*,*,#178,.F.);
#126=ORIENTED_EDGE('',*,*,#172,.F.);
#127=ORIENTED_EDGE('',*,*,#174,.T.);
#128=ORIENTED_EDGE('',*,*,#179,.T.);
#129=ORIENTED_EDGE('',*,*,#175,.T.);
#130=ORIENTED_EDGE('',*,*,#141,.F.);
#131=ORIENTED_EDGE('',*,*,#179,.F.);
#132=ORIENTED_EDGE('',*,*,#173,.F.);
#133=ORIENTED_EDGE('',*,*,#178,.T.);
#134=ORIENTED_EDGE('',*,*,#176,.T.);
#135=EDGE_CURVE('',#180,#181,#213,.T.);
#136=EDGE_CURVE('',#180,#182,#42,.F.);
#137=EDGE_CURVE('',#182,#183,#214,.T.);
#138=EDGE_CURVE('',#181,#183,#215,.T.);
#139=EDGE_CURVE('',#184,#185,#216,.T.);
#140=EDGE_CURVE('',#186,#184,#217,.T.);
#141=EDGE_CURVE('',#186,#187,#218,.T.);
#142=EDGE_CURVE('',#185,#187,#219,.T.);
#143=EDGE_CURVE('',#188,#182,#220,.T.);
#144=EDGE_CURVE('',#189,#188,#221,.T.);
#145=EDGE_CURVE('',#190,#189,#30,.T.);
#146=EDGE_CURVE('',#191,#190,#222,.T.);
#147=EDGE_CURVE('',#192,#191,#223,.T.);
#148=EDGE_CURVE('',#193,#192,#224,.T.);
#149=EDGE_CURVE('',#193,#183,#31,.T.);
#150=EDGE_CURVE('',#194,#194,#32,.T.);
#151=EDGE_CURVE('',#192,#195,#33,.T.);
#152=EDGE_CURVE('',#196,#195,#225,.T.);
#153=EDGE_CURVE('',#196,#193,#226,.T.);
#154=EDGE_CURVE('',#197,#197,#34,.T.);
#155=EDGE_CURVE('',#198,#199,#227,.T.);
#156=EDGE_CURVE('',#198,#191,#35,.F.);
#157=EDGE_CURVE('',#199,#190,#228,.T.);
#158=EDGE_CURVE('',#200,#180,#229,.T.);
#159=EDGE_CURVE('',#201,#200,#43,.T.);
#160=EDGE_CURVE('',#202,#201,#23,.T.);
#161=EDGE_CURVE('',#188,#202,#44,.T.);
#162=EDGE_CURVE('',#203,#203,#36,.T.);
#163=EDGE_CURVE('',#204,#204,#37,.T.);
#164=EDGE_CURVE('',#202,#189,#230,.T.);
#165=EDGE_CURVE('',#205,#201,#231,.T.);
#166=EDGE_CURVE('',#199,#205,#38,.T.);
#167=EDGE_CURVE('',#205,#200,#232,.T.);
#168=EDGE_CURVE('',#196,#181,#39,.T.);
#169=EDGE_CURVE('',#195,#198,#233,.T.);
#170=EDGE_CURVE('',#206,#206,#40,.T.);
#171=EDGE_CURVE('',#208,#208,#41,.T.);
#172=EDGE_CURVE('',#184,#209,#234,.T.);
#173=EDGE_CURVE('',#209,#210,#235,.T.);
#174=EDGE_CURVE('',#186,#210,#236,.T.);
#175=EDGE_CURVE('',#211,#187,#237,.T.);
#176=EDGE_CURVE('',#212,#211,#238,.T.);
#177=EDGE_CURVE('',#212,#185,#239,.T.);
#178=EDGE_CURVE('',#209,#212,#240,.T.);
#179=EDGE_CURVE('',#210,#211,#241,.T.);
#180=VERTEX_POINT('',#511);
#181=VERTEX_POINT('',#512);
#182=VERTEX_POINT('',#514);
#183=VERTEX_POINT('',#516);
#184=VERTEX_POINT('',#519);
#185=VERTEX_POINT('',#520);
#186=VERTEX_POINT('',#522);
#187=VERTEX_POINT('',#524);
#188=VERTEX_POINT('',#528);
#189=VERTEX_POINT('',#530);
#190=VERTEX_POINT('',#532);
#191=VERTEX_POINT('',#534);
#192=VERTEX_POINT('',#536);
#193=VERTEX_POINT('',#538);
#194=VERTEX_POINT('',#542);
#195=VERTEX_POINT('',#544);
#196=VERTEX_POINT('',#546);
#197=VERTEX_POINT('',#550);
#198=VERTEX_POINT('',#552);
#199=VERTEX_POINT('',#553);
#200=VERTEX_POINT('',#558);
#201=VERTEX_POINT('',#560);
#202=VERTEX_POINT('',#565);
#203=VERTEX_POINT('',#568);
#204=VERTEX_POINT('',#571);
#205=VERTEX_POINT('',#575);
#206=VERTEX_POINT('',#588);
#207=VERTEX_POINT('',#589);
#208=VERTEX_POINT('',#592);
#209=VERTEX_POINT('',#596);
#210=VERTEX_POINT('',#598);
#211=VERTEX_POINT('',#602);
#212=VERTEX_POINT('',#604);
#213=LINE('',#510,#242);
#214=LINE('',#515,#243);
#215=LINE('',#517,#244);
#216=LINE('',#518,#245);
#217=LINE('',#521,#246);
#218=LINE('',#523,#247);
#219=LINE('',#525,#248);
#220=LINE('',#527,#249);
#221=LINE('',#529,#250);
#222=LINE('',#533,#251);
#223=LINE('',#535,#252);
#224=LINE('',#537,#253);
#225=LINE('',#545,#254);
#226=LINE('',#547,#255);
#227=LINE('',#551,#256);
#228=LINE('',#555,#257);
#229=LINE('',#557,#258);
#230=LINE('',#573,#259);
#231=LINE('',#574,#260);
#232=LINE('',#578,#261);
#233=LINE('',#582,#262);
#234=LINE('',#595,#263);
#235=LINE('',#597,#264);
#236=LINE('',#599,#265);
#237=LINE('',#601,#266);
#238=LINE('',#603,#267);
#239=LINE('',#605,#268);
#240=LINE('',#607,#269);
#241=LINE('',#609,#270);
#242=VECTOR('',#409,1000.);
#243=VECTOR('',#412,1000.);
#244=VECTOR('',#413,1000.);
#245=VECTOR('',#414,1000.);
#246=VECTOR('',#415,1000.);
#247=VECTOR('',#416,1000.);
#248=VECTOR('',#417,1000.);
#249=VECTOR('',#420,1000.);
#250=VECTOR('',#421,1000.);
#251=VECTOR('',#424,1000.);
#252=VECTOR('',#425,1000.);
#253=VECTOR('',#426,1000.);
#254=VECTOR('',#435,1000.);
#255=VECTOR('',#436,1000.);
#256=VECTOR('',#441,1000.);
#257=VECTOR('',#444,1000.);
#258=VECTOR('',#447,1000.);
#259=VECTOR('',#460,1000.);
#260=VECTOR('',#461,1000.);
#261=VECTOR('',#466,1000.);
#262=VECTOR('',#473,1000.);
#263=VECTOR('',#492,1000.);
#264=VECTOR('',#493,1000.);
#265=VECTOR('',#494,1000.);
#266=VECTOR('',#497,1000.);
#267=VECTOR('',#498,1000.);
#268=VECTOR('',#499,1000.);
#269=VECTOR('',#502,1000.);
#270=VECTOR('',#505,1000.);
#271=EDGE_LOOP('',(#45,#46,#47,#48));
#272=EDGE_LOOP('',(#49,#50,#51,#52));
#273=EDGE_LOOP('',(#53,#54,#55,#56,#57,#58,#59,#60));
#274=EDGE_LOOP('',(#61));
#275=EDGE_LOOP('',(#62,#63,#64,#65));
#276=EDGE_LOOP('',(#66));
#277=EDGE_LOOP('',(#67,#68,#69,#70));
#278=EDGE_LOOP('',(#71,#72,#73,#74,#75,#76));
#279=EDGE_LOOP('',(#77));
#280=EDGE_LOOP('',(#78));
#281=EDGE_LOOP('',(#79));
#282=EDGE_LOOP('',(#80,#81,#82,#83,#84,#85));
#283=EDGE_LOOP('',(#86,#87,#88));
#284=EDGE_LOOP('',(#89,#90,#91,#92));
#285=EDGE_LOOP('',(#93,#94,#95,#96,#97,#98,#99,#100));
#286=EDGE_LOOP('',(#101,#102,#103));
#287=EDGE_LOOP('',(#104));
#288=EDGE_LOOP('',(#105));
#289=EDGE_LOOP('',(#106,#107,#108,#109));
#290=EDGE_LOOP('',(#110));
#291=EDGE_LOOP('',(#111));
#292=EDGE_LOOP('',(#112));
#293=EDGE_LOOP('',(#113));
#294=EDGE_LOOP('',(#114));
#295=EDGE_LOOP('',(#115,#116,#117,#118));
#296=EDGE_LOOP('',(#119,#120,#121,#122));
#297=EDGE_LOOP('',(#123,#124,#125,#126));
#298=EDGE_LOOP('',(#127,#128,#129,#130));
#299=EDGE_LOOP('',(#131,#132,#133,#134));
#300=FACE_BOUND('',#271,.T.);
#301=FACE_BOUND('',#272,.T.);
#302=FACE_BOUND('',#273,.T.);
#303=FACE_BOUND('',#274,.T.);
#304=FACE_BOUND('',#275,.T.);
#305=FACE_BOUND('',#276,.T.);
#306=FACE_BOUND('',#277,.T.);
#307=FACE_BOUND('',#278,.T.);
#308=FACE_BOUND('',#279,.T.);
#309=FACE_BOUND('',#280,.T.);
#310=FACE_BOUND('',#281,.T.);
#311=FACE_BOUND('',#282,.T.);
#312=FACE_BOUND('',#283,.T.);
#313=FACE_BOUND('',#284,.T.);
#314=FACE_BOUND('',#285,.T.);
#315=FACE_BOUND('',#286,.T.);
#316=FACE_BOUND('',#287,.T.);
#317=FACE_BOUND('',#288,.T.);
#318=FACE_BOUND('',#289,.T.);
#319=FACE_BOUND('',#290,.T.);
#320=FACE_BOUND('',#20,.T.);
#321=FACE_BOUND('',#291,.T.);
#322=FACE_BOUND('',#292,.T.);
#323=FACE_BOUND('',#293,.T.);
#324=FACE_BOUND('',#294,.T.);
#325=FACE_BOUND('',#295,.T.);
#326=FACE_BOUND('',#296,.T.);
#327=FACE_BOUND('',#297,.T.);
#328=FACE_BOUND('',#298,.T.);
#329=FACE_BOUND('',#299,.T.);
#330=PLANE('',#369);
#331=PLANE('',#371);
#332=PLANE('',#374);
#333=PLANE('',#377);
#334=PLANE('',#384);
#335=PLANE('',#388);
#336=PLANE('',#391);
#337=PLANE('',#392);
#338=PLANE('',#400);
#339=PLANE('',#401);
#340=PLANE('',#402);
#341=PLANE('',#403);
#342=PLANE('',#404);
#343=ADVANCED_FACE('',(#300,#301),#330,.F.);
#344=ADVANCED_FACE('',(#302),#331,.F.);
#345=ADVANCED_FACE('',(#303,#304),#332,.F.);
#346=ADVANCED_FACE('',(#305,#306),#333,.F.);
#347=ADVANCED_FACE('',(#307,#308),#24,.T.);
#348=ADVANCED_FACE('',(#309,#310),#334,.F.);
#349=ADVANCED_FACE('',(#311),#25,.T.);
#350=ADVANCED_FACE('',(#312),#335,.F.);
#351=ADVANCED_FACE('',(#313),#26,.F.);
#352=ADVANCED_FACE('',(#314),#336,.T.);
#353=ADVANCED_FACE('',(#315),#337,.F.);
#354=ADVANCED_FACE('',(#316,#317),#27,.F.);
#355=ADVANCED_FACE('',(#318),#28,.T.);
#356=ADVANCED_FACE('',(#319,#320),#21,.F.);
#357=ADVANCED_FACE('',(#321,#322),#29,.F.);
#358=ADVANCED_FACE('',(#323,#324),#22,.F.);
#359=ADVANCED_FACE('',(#325),#338,.T.);
#360=ADVANCED_FACE('',(#326),#339,.T.);
#361=ADVANCED_FACE('',(#327),#340,.T.);
#362=ADVANCED_FACE('',(#328),#341,.F.);
#363=ADVANCED_FACE('',(#329),#342,.T.);
#364=CLOSED_SHELL('',(#343,#344,#345,#346,#347,#348,#349,#350,#351,#352,
#353,#354,#355,#356,#357,#358,#359,#360,#361,#362,#363));
#365=MANIFOLD_SOLID_BREP(
'BN 20395 3443487 compression cable lug BM 03143',#364);
#366=SHAPE_DEFINITION_REPRESENTATION(#616,#367);
#367=SHAPE_REPRESENTATION(
'BN 20395 3443487 compression cable lug BM 03143',(#368),#611);
#368=AXIS2_PLACEMENT_3D('',#508,#405,#406);
#369=AXIS2_PLACEMENT_3D('',#509,#407,#408);
#370=AXIS2_PLACEMENT_3D('',#513,#410,#411);
#371=AXIS2_PLACEMENT_3D('',#526,#418,#419);
#372=AXIS2_PLACEMENT_3D('',#531,#422,#423);
#373=AXIS2_PLACEMENT_3D('',#539,#427,#428);
#374=AXIS2_PLACEMENT_3D('',#540,#429,#430);
#375=AXIS2_PLACEMENT_3D('',#541,#431,#432);
#376=AXIS2_PLACEMENT_3D('',#543,#433,#434);
#377=AXIS2_PLACEMENT_3D('',#548,#437,#438);
#378=AXIS2_PLACEMENT_3D('',#549,#439,#440);
#379=AXIS2_PLACEMENT_3D('',#554,#442,#443);
#380=AXIS2_PLACEMENT_3D('',#556,#445,#446);
#381=AXIS2_PLACEMENT_3D('',#559,#448,#449);
#382=AXIS2_PLACEMENT_3D('',#566,#450,#451);
#383=AXIS2_PLACEMENT_3D('',#567,#452,#453);
#384=AXIS2_PLACEMENT_3D('',#569,#454,#455);
#385=AXIS2_PLACEMENT_3D('',#570,#456,#457);
#386=AXIS2_PLACEMENT_3D('',#572,#458,#459);
#387=AXIS2_PLACEMENT_3D('',#576,#462,#463);
#388=AXIS2_PLACEMENT_3D('',#577,#464,#465);
#389=AXIS2_PLACEMENT_3D('',#579,#467,#468);
#390=AXIS2_PLACEMENT_3D('',#580,#469,#470);
#391=AXIS2_PLACEMENT_3D('',#581,#471,#472);
#392=AXIS2_PLACEMENT_3D('',#583,#474,#475);
#393=AXIS2_PLACEMENT_3D('',#584,#476,#477);
#394=AXIS2_PLACEMENT_3D('',#585,#478,#479);
#395=AXIS2_PLACEMENT_3D('',#586,#480,#481);
#396=AXIS2_PLACEMENT_3D('',#587,#482,#483);
#397=AXIS2_PLACEMENT_3D('',#590,#484,#485);
#398=AXIS2_PLACEMENT_3D('',#591,#486,#487);
#399=AXIS2_PLACEMENT_3D('',#593,#488,#489);
#400=AXIS2_PLACEMENT_3D('',#594,#490,#491);
#401=AXIS2_PLACEMENT_3D('',#600,#495,#496);
#402=AXIS2_PLACEMENT_3D('',#606,#500,#501);
#403=AXIS2_PLACEMENT_3D('',#608,#503,#504);
#404=AXIS2_PLACEMENT_3D('',#610,#506,#507);
#405=DIRECTION('',(0.,0.,1.));
#406=DIRECTION('',(1.,0.,0.));
#407=DIRECTION('',(0.888821395218874,-0.458253780563973,0.));
#408=DIRECTION('',(0.458253780563973,0.888821395218874,0.));
#409=DIRECTION('',(-0.458253780563973,-0.888821395218874,0.));
#410=DIRECTION('',(0.888821395218874,-0.458253780563973,0.));
#411=DIRECTION('',(-0.458253780563973,-0.888821395218874,0.));
#412=DIRECTION('',(-0.458253780563973,-0.888821395218874,0.));
#413=DIRECTION('',(0.,0.,-1.));
#414=DIRECTION('',(0.458253780563973,0.888821395218874,0.));
#415=DIRECTION('',(0.,0.,1.));
#416=DIRECTION('',(0.458253780563973,0.888821395218874,0.));
#417=DIRECTION('',(0.,0.,-1.));
#418=DIRECTION('',(0.,0.,1.));
#419=DIRECTION('',(1.,0.,0.));
#420=DIRECTION('',(-1.,0.,0.));
#421=DIRECTION('',(0.458253780563974,0.888821395218874,0.));
#422=DIRECTION('',(0.,0.,1.));
#423=DIRECTION('',(1.,0.,0.));
#424=DIRECTION('',(1.,0.,0.));
#425=DIRECTION('',(0.,-1.,0.));
#426=DIRECTION('',(-1.,0.,0.));
#427=DIRECTION('',(0.,0.,1.));
#428=DIRECTION('',(1.,0.,0.));
#429=DIRECTION('',(0.,-1.,0.));
#430=DIRECTION('',(0.,0.,-1.));
#431=DIRECTION('',(0.,1.,0.));
#432=DIRECTION('',(1.,0.,0.));
#433=DIRECTION('',(0.,1.,0.));
#434=DIRECTION('',(1.,0.,0.));
#435=DIRECTION('',(-1.,0.,0.));
#436=DIRECTION('',(0.,0.,-1.));
#437=DIRECTION('',(0.,1.,0.));
#438=DIRECTION('',(0.,0.,1.));
#439=DIRECTION('',(0.,1.,0.));
#440=DIRECTION('',(1.,0.,0.));
#441=DIRECTION('',(1.,0.,0.));
#442=DIRECTION('',(0.,1.,0.));
#443=DIRECTION('',(0.,0.,1.));
#444=DIRECTION('',(0.,0.,-1.));
#445=DIRECTION('',(-1.,0.,0.));
#446=DIRECTION('',(0.,0.,1.));
#447=DIRECTION('',(-1.,0.,0.));
#448=DIRECTION('',(-0.888821395218874,0.458253780563974,0.));
#449=DIRECTION('',(-0.458253780563974,-0.888821395218874,0.));
#450=DIRECTION('',(-0.888821395218874,0.458253780563974,0.));
#451=DIRECTION('',(-0.458253780563974,-0.888821395218874,0.));
#452=DIRECTION('',(-1.,0.,0.));
#453=DIRECTION('',(0.,0.,1.));
#454=DIRECTION('',(-1.,0.,0.));
#455=DIRECTION('',(0.,0.,1.));
#456=DIRECTION('',(1.,0.,0.));
#457=DIRECTION('',(0.,0.,-1.));
#458=DIRECTION('',(0.,0.,-1.));
#459=DIRECTION('',(-1.,0.,0.));
#460=DIRECTION('',(0.,0.,-1.));
#461=DIRECTION('',(0.,0.,-1.));
#462=DIRECTION('',(0.,0.,1.));
#463=DIRECTION('',(1.,0.,0.));
#464=DIRECTION('',(-0.888821395218874,0.458253780563974,0.));
#465=DIRECTION('',(-0.458253780563974,-0.888821395218874,0.));
#466=DIRECTION('',(0.458253780563974,0.888821395218874,0.));
#467=DIRECTION('',(0.,0.,-1.));
#468=DIRECTION('',(-1.,0.,0.));
#469=DIRECTION('',(0.,0.,1.));
#470=DIRECTION('',(1.,0.,0.));
#471=DIRECTION('',(0.,0.,1.));
#472=DIRECTION('',(1.,0.,0.));
#473=DIRECTION('',(0.,-1.,0.));
#474=DIRECTION('',(-0.888821395218874,0.458253780563974,0.));
#475=DIRECTION('',(-0.458253780563974,-0.888821395218874,0.));
#476=DIRECTION('',(0.,-1.,0.));
#477=DIRECTION('',(0.,0.,-1.));
#478=DIRECTION('',(0.,-1.,0.));
#479=DIRECTION('',(0.,0.,-1.));
#480=DIRECTION('',(1.,0.,0.));
#481=DIRECTION('',(0.,0.,-1.));
#482=DIRECTION('',(1.,0.,0.));
#483=DIRECTION('',(0.,0.,-1.));
#484=DIRECTION('',(1.,0.,0.));
#485=DIRECTION('',(0.,0.,-1.));
#486=DIRECTION('',(1.,0.,0.));
#487=DIRECTION('',(0.,0.,-1.));
#488=DIRECTION('',(1.,0.,0.));
#489=DIRECTION('',(0.,0.,-1.));
#490=DIRECTION('',(-0.0871557427476582,0.996194698091745,0.));
#491=DIRECTION('',(-0.996194698091746,-0.0871557427476582,0.));
#492=DIRECTION('',(0.996194698091745,0.0871557427476582,0.));
#493=DIRECTION('',(0.,0.,-1.));
#494=DIRECTION('',(0.996194698091745,0.0871557427476582,0.));
#495=DIRECTION('',(-0.0871557427476588,-0.996194698091745,0.));
#496=DIRECTION('',(0.996194698091746,-0.0871557427476588,0.));
#497=DIRECTION('',(-0.996194698091745,0.0871557427476588,0.));
#498=DIRECTION('',(0.,0.,-1.));
#499=DIRECTION('',(-0.996194698091745,0.0871557427476588,0.));
#500=DIRECTION('',(0.,0.,-1.));
#501=DIRECTION('',(-1.,0.,0.));
#502=DIRECTION('',(0.458253780563972,0.888821395218875,0.));
#503=DIRECTION('',(0.,0.,-1.));
#504=DIRECTION('',(-1.,0.,0.));
#505=DIRECTION('',(0.458253780563972,0.888821395218875,0.));
#506=DIRECTION('',(-0.888821395218875,0.458253780563972,0.));
#507=DIRECTION('',(-0.458253780563972,-0.888821395218875,0.));
#508=CARTESIAN_POINT('',(0.,0.,0.));
#509=CARTESIAN_POINT('',(24.5,26.725,12.5));
#510=CARTESIAN_POINT('',(24.5,26.725,12.5));
#511=CARTESIAN_POINT('',(18.0553168635875,14.225,12.5));
#512=CARTESIAN_POINT('',(12.9818108159968,4.38451222852715,12.5));
#513=CARTESIAN_POINT('',(18.0553168635875,14.225,0.));
#514=CARTESIAN_POINT('',(18.0553168635875,14.225,-12.5));
#515=CARTESIAN_POINT('',(24.5,26.725,-12.5));
#516=CARTESIAN_POINT('',(12.9818108159968,4.38451222852715,-12.5));
#517=CARTESIAN_POINT('',(12.9818108159968,4.38451222852715,12.5));
#518=CARTESIAN_POINT('',(24.5,26.725,1.725));
#519=CARTESIAN_POINT('',(20.4414385893685,18.8530819306293,1.725));
#520=CARTESIAN_POINT('',(22.1184658864736,22.1058161256395,1.725));
#521=CARTESIAN_POINT('',(20.4414385893685,18.8530819306293,12.5));
#522=CARTESIAN_POINT('',(20.4414385893685,18.8530819306293,-1.725));
#523=CARTESIAN_POINT('',(24.5,26.725,-1.725));
#524=CARTESIAN_POINT('',(22.1184658864736,22.1058161256395,-1.725));
#525=CARTESIAN_POINT('',(22.1184658864736,22.1058161256395,12.5));
#526=CARTESIAN_POINT('',(12.5,3.45,-12.5));
#527=CARTESIAN_POINT('',(72.,14.225,-12.5));
#528=CARTESIAN_POINT('',(21.9368615907489,14.225,-12.5));
#529=CARTESIAN_POINT('',(15.5664338135051,1.86902445705429,-12.5));
#530=CARTESIAN_POINT('',(15.5664338135051,1.86902445705429,-12.5));
#531=CARTESIAN_POINT('',(12.5,3.45,-12.5));
#532=CARTESIAN_POINT('',(12.5,0.,-12.5));
#533=CARTESIAN_POINT('',(-13.5,0.,-12.5));
#534=CARTESIAN_POINT('',(-5.25,0.,-12.5));
#535=CARTESIAN_POINT('',(-5.25,3.45,-12.5));
#536=CARTESIAN_POINT('',(-5.25,3.45,-12.5));
#537=CARTESIAN_POINT('',(11.4485939092443,3.45,-12.5));
#538=CARTESIAN_POINT('',(11.4485939092443,3.45,-12.5));
#539=CARTESIAN_POINT('',(11.4485939092443,5.175,-12.5));
#540=CARTESIAN_POINT('',(11.4485939092443,3.45,12.5));
#541=CARTESIAN_POINT('',(0.,3.45,0.));
#542=CARTESIAN_POINT('',(5.25,3.45,0.));
#543=CARTESIAN_POINT('',(1.90086206896552,3.45,0.));
#544=CARTESIAN_POINT('',(-5.25,3.45,12.5));
#545=CARTESIAN_POINT('',(11.4485939092443,3.45,12.5));
#546=CARTESIAN_POINT('',(11.4485939092443,3.45,12.5));
#547=CARTESIAN_POINT('',(11.4485939092443,3.45,12.5));
#548=CARTESIAN_POINT('',(-13.5,0.,12.5));
#549=CARTESIAN_POINT('',(0.,0.,0.));
#550=CARTESIAN_POINT('',(5.25,0.,0.));
#551=CARTESIAN_POINT('',(-13.5,0.,12.5));
#552=CARTESIAN_POINT('',(-5.25,8.67361737988404E-16,12.5));
#553=CARTESIAN_POINT('',(12.5,0.,12.5));
#554=CARTESIAN_POINT('',(1.90086206896552,0.,0.));
#555=CARTESIAN_POINT('',(12.5,0.,12.5));
#556=CARTESIAN_POINT('',(6.1,14.225,0.));
#557=CARTESIAN_POINT('',(72.,14.225,12.5));
#558=CARTESIAN_POINT('',(21.9368615907489,14.225,12.5));
#559=CARTESIAN_POINT('',(21.9368615907489,14.225,0.));
#560=CARTESIAN_POINT('',(15.5664338135051,1.86902445705429,1.89205401141919));
#561=CARTESIAN_POINT('',(15.5664338135051,1.86902445705429,-1.89205401141919));
#562=CARTESIAN_POINT('',(15.4668496414574,1.67587265668667,-0.630684670473073));
#563=CARTESIAN_POINT('',(15.4668496414574,1.67587265668667,0.630684670473073));
#564=CARTESIAN_POINT('',(15.5664338135051,1.86902445705429,1.89205401141919));
#565=CARTESIAN_POINT('',(15.5664338135051,1.86902445705429,-1.89205401141917));
#566=CARTESIAN_POINT('',(21.9368615907489,14.225,0.));
#567=CARTESIAN_POINT('',(47.5,14.225,0.));
#568=CARTESIAN_POINT('',(47.5,14.225,12.5));
#569=CARTESIAN_POINT('',(47.5,14.225,0.));
#570=CARTESIAN_POINT('',(47.5,14.225,0.));
#571=CARTESIAN_POINT('',(47.5,14.225,-7.245));
#572=CARTESIAN_POINT('',(12.5,3.45,12.5));
#573=CARTESIAN_POINT('',(15.5664338135051,1.86902445705429,12.5));
#574=CARTESIAN_POINT('',(15.5664338135051,1.86902445705429,12.5));
#575=CARTESIAN_POINT('',(15.5664338135051,1.86902445705429,12.5));
#576=CARTESIAN_POINT('',(12.5,3.45,12.5));
#577=CARTESIAN_POINT('',(15.5664338135051,1.86902445705429,12.5));
#578=CARTESIAN_POINT('',(15.5664338135051,1.86902445705429,12.5));
#579=CARTESIAN_POINT('',(11.4485939092443,5.175,12.5));
#580=CARTESIAN_POINT('',(11.4485939092443,5.175,12.5));
#581=CARTESIAN_POINT('',(12.5,3.45,12.5));
#582=CARTESIAN_POINT('',(-5.25,3.45,12.5));
#583=CARTESIAN_POINT('',(15.5664338135051,1.86902445705429,12.5));
#584=CARTESIAN_POINT('',(0.,3.45,0.));
#585=CARTESIAN_POINT('',(1.90086206896552,3.45,0.));
#586=CARTESIAN_POINT('',(25.1162831425916,14.225,0.));
#587=CARTESIAN_POINT('',(29.1,14.225,0.));
#588=CARTESIAN_POINT('',(29.1,14.225,-6.9));
#589=CARTESIAN_POINT('',(25.1162831425916,14.225,0.));
#590=CARTESIAN_POINT('',(47.5,14.225,0.));
#591=CARTESIAN_POINT('',(47.155,14.225,0.));
#592=CARTESIAN_POINT('',(47.155,14.225,-6.9));
#593=CARTESIAN_POINT('',(47.155,14.225,0.));
#594=CARTESIAN_POINT('',(19.2632067308061,18.75,1.725));
#595=CARTESIAN_POINT('',(19.2632067308061,18.75,1.725));
#596=CARTESIAN_POINT('',(22.4738885453885,19.0308982609648,1.725));
#597=CARTESIAN_POINT('',(22.4738885453885,19.0308982609648,1.725));
#598=CARTESIAN_POINT('',(22.4738885453885,19.0308982609648,-1.725));
#599=CARTESIAN_POINT('',(19.2632067308061,18.75,-1.725));
#600=CARTESIAN_POINT('',(23.975474288754,21.9433489423675,1.725));
#601=CARTESIAN_POINT('',(23.975474288754,21.9433489423675,-1.725));
#602=CARTESIAN_POINT('',(23.975474288754,21.9433489423675,-1.725));
#603=CARTESIAN_POINT('',(23.975474288754,21.9433489423675,1.725));
#604=CARTESIAN_POINT('',(23.975474288754,21.9433489423675,1.725));
#605=CARTESIAN_POINT('',(23.975474288754,21.9433489423675,1.725));
#606=CARTESIAN_POINT('',(0.,0.,1.725));
#607=CARTESIAN_POINT('',(22.4738885453885,19.0308982609648,1.725));
#608=CARTESIAN_POINT('',(0.,0.,-1.725));
#609=CARTESIAN_POINT('',(22.4738885453885,19.0308982609648,-1.725));
#610=CARTESIAN_POINT('',(22.4738885453885,19.0308982609648,1.725));
#611=(
GEOMETRIC_REPRESENTATION_CONTEXT(3)
GLOBAL_UNCERTAINTY_ASSIGNED_CONTEXT((#612))
GLOBAL_UNIT_ASSIGNED_CONTEXT((#615,#614,#613))
REPRESENTATION_CONTEXT(
'BN 20395 3443487 compression cable lug BM 03143',
'TOP_LEVEL_ASSEMBLY_PART')
);
#612=UNCERTAINTY_MEASURE_WITH_UNIT(LENGTH_MEASURE(1.E-5),#615,
'DISTANCE_ACCURACY_VALUE','Maximum Tolerance applied to model');
#613=(
NAMED_UNIT(*)
SI_UNIT($,.STERADIAN.)
SOLID_ANGLE_UNIT()
);
#614=(
NAMED_UNIT(*)
PLANE_ANGLE_UNIT()
SI_UNIT($,.RADIAN.)
);
#615=(
LENGTH_UNIT()
NAMED_UNIT(*)
SI_UNIT(.MILLI.,.METRE.)
);
#616=PRODUCT_DEFINITION_SHAPE('','',#617);
#617=PRODUCT_DEFINITION('','',#619,#618);
#618=DESIGN_CONTEXT('',#625,'design');
#619=PRODUCT_DEFINITION_FORMATION_WITH_SPECIFIED_SOURCE('','',#621,
 .NOT_KNOWN.);
#620=PRODUCT_RELATED_PRODUCT_CATEGORY('','',(#621));
#621=PRODUCT('BN 20395 3443487 compression cable lug BM 03143',
'BN 20395 3443487 compression cable lug BM 03143',
'BN 20395 3443487 compression cable lug BM 03143',(#623));
#622=PRODUCT_CATEGORY('','');
#623=MECHANICAL_CONTEXT('',#625,'mechanical');
#624=APPLICATION_PROTOCOL_DEFINITION('international standard',
'config_control_design',2010,#625);
#625=APPLICATION_CONTEXT(
'configuration controlled 3D designs of mechanical parts and assemblie
s');
ENDSEC;
END-ISO-10303-21;
